<?xml version="1.0" standalone="no"?>
<!DOCTYPE svg PUBLIC "-//W3C//DTD SVG 20010904//EN"
 "http://www.w3.org/TR/2001/REC-SVG-20010904/DTD/svg10.dtd">
<svg version="1.0" xmlns="http://www.w3.org/2000/svg"
 width="417.000000pt" height="422.000000pt" viewBox="0 0 417.000000 422.000000"
 preserveAspectRatio="xMidYMid meet">

<g transform="translate(0.000000,422.000000) scale(0.100000,-0.100000)"
fill="#000000" stroke="none">
<path d="M2933 3168 c3 -579 8 -1066 12 -1081 6 -23 5 -28 -8 -25 -8 1 -487
471 -1064 1044 -577 573 -1069 1055 -1093 1073 -42 30 -46 31 -147 31 -97 0
-109 -2 -206 -40 -119 -48 -152 -69 -229 -147 -64 -66 -108 -141 -144 -245
-35 -105 -48 -420 -40 -998 3 -250 7 -864 8 -1365 3 -812 5 -915 19 -957 9
-26 15 -49 12 -51 -2 -3 10 -29 28 -58 106 -182 233 -276 427 -319 76 -17 129
-20 415 -20 254 0 327 3 329 13 1 6 2 444 2 972 l1 960 39 98 c21 53 43 97 49
97 6 0 124 -111 261 -248 138 -136 611 -603 1051 -1039 440 -435 814 -802 830
-815 39 -33 79 -39 157 -27 86 14 139 33 217 78 98 58 145 103 210 202 52 79
61 100 80 191 l22 103 -3 1540 -3 1540 -23 75 c-33 109 -42 130 -75 175 -86
114 -199 208 -280 232 -29 8 -56 19 -62 23 -30 23 -162 33 -468 37 l-328 5 4
-1054z"/>
</g>
</svg>
